<svg width="66" height="68" viewBox="0 0 66 68" fill="none" xmlns="http://www.w3.org/2000/svg">
<g clip-path="url(#clip0_78_283)">
<g filter="url(#filter0_dddd_78_283)">
<mask id="path-1-inside-1_78_283" fill="white">
<path d="M27.2949 16.2695C28.4871 16.2696 29.4531 17.2365 29.4531 18.4287V19.5078L29.458 19.9297C29.6406 28.7644 35.5097 36.3507 39.6084 40.5195C40.6744 41.6037 41.3261 43.0411 41.3262 44.5615V46.4922H41.3252V54.0469C41.3252 55.239 40.3591 56.2059 39.167 56.2061H2.46777C1.27576 56.2058 0.30957 55.2389 0.30957 54.0469V44.5615C0.309631 43.0411 0.961367 41.6037 2.02734 40.5195C6.19115 36.2845 12.1826 28.5226 12.1826 19.5078H12.1836V18.4287C12.1836 17.2365 13.1505 16.2695 14.3428 16.2695H27.2949Z"/>
</mask>
<g filter="url(#filter1_ii_78_283)">
<path d="M27.2949 16.2695C28.4871 16.2696 29.4531 17.2365 29.4531 18.4287V19.5078L29.458 19.9297C29.6406 28.7644 35.5097 36.3507 39.6084 40.5195C40.6744 41.6037 41.3261 43.0411 41.3262 44.5615V46.4922H41.3252V54.0469C41.3252 55.239 40.3591 56.2059 39.167 56.2061H2.46777C1.27576 56.2058 0.30957 55.2389 0.30957 54.0469V44.5615C0.309631 43.0411 0.961367 41.6037 2.02734 40.5195C6.19115 36.2845 12.1826 28.5226 12.1826 19.5078H12.1836V18.4287C12.1836 17.2365 13.1505 16.2695 14.3428 16.2695H27.2949Z" fill="url(#paint0_linear_78_283)"/>
</g>
<path d="M27.2949 16.2695L27.295 15.46H27.2949V16.2695ZM29.4531 19.5078H28.6435L28.6437 19.5172L29.4531 19.5078ZM29.458 19.9297L28.6485 19.9391L28.6487 19.9464L29.458 19.9297ZM39.6084 40.5195L39.0311 41.0871V41.0871L39.6084 40.5195ZM41.3262 44.5615H42.1357V44.5615L41.3262 44.5615ZM41.3262 46.4922V47.3017H42.1357V46.4922H41.3262ZM41.3252 46.4922V45.6827H40.5157V46.4922H41.3252ZM39.167 56.2061V57.0156H39.1671L39.167 56.2061ZM2.46777 56.2061L2.4676 57.0156H2.46777V56.2061ZM0.30957 44.5615L-0.499954 44.5615V44.5615H0.30957ZM2.02734 40.5195L2.60459 41.0871L2.60459 41.0871L2.02734 40.5195ZM12.1826 19.5078V18.6983H11.3731L11.3731 19.5078L12.1826 19.5078ZM12.1836 19.5078V20.3173H12.9931V19.5078H12.1836ZM27.2949 16.2695L27.2948 17.0791C28.0396 17.0791 28.6436 17.6832 28.6436 18.4287H29.4531H30.2626C30.2626 16.7899 28.9346 15.4602 27.295 15.46L27.2949 16.2695ZM29.4531 18.4287H28.6436V19.5078H29.4531H30.2626V18.4287H29.4531ZM29.4531 19.5078L28.6437 19.5172L28.6485 19.9391L29.458 19.9297L30.2675 19.9203L30.2626 19.4984L29.4531 19.5078ZM29.458 19.9297L28.6487 19.9464C28.8379 29.1041 34.8979 36.8832 39.0311 41.0871L39.6084 40.5195L40.1856 39.952C36.1214 35.8183 30.4433 28.4246 30.2674 19.913L29.458 19.9297ZM39.6084 40.5195L39.0311 41.0871C39.9648 42.0366 40.5166 43.2758 40.5166 44.5616L41.3262 44.5615L42.1357 44.5615C42.1356 42.8063 41.384 41.1708 40.1856 39.952L39.6084 40.5195ZM41.3262 44.5615H40.5166V46.4922H41.3262H42.1357V44.5615H41.3262ZM41.3262 46.4922V45.6827H41.3252V46.4922V47.3017H41.3262V46.4922ZM41.3252 46.4922H40.5157V54.0469H41.3252H42.1347V46.4922H41.3252ZM41.3252 54.0469H40.5157C40.5157 54.7923 39.9116 55.3964 39.1669 55.3965L39.167 56.2061L39.1671 57.0156C40.8065 57.0153 42.1347 55.6857 42.1347 54.0469H41.3252ZM39.167 56.2061V55.3965H2.46777V56.2061V57.0156H39.167V56.2061ZM2.46777 56.2061L2.46795 55.3965C1.72319 55.3964 1.11909 54.7922 1.11909 54.0469H0.30957H-0.499954C-0.499954 55.6857 0.828332 57.0152 2.4676 57.0156L2.46777 56.2061ZM0.30957 54.0469H1.11909V44.5615H0.30957H-0.499954V54.0469H0.30957ZM0.30957 44.5615L1.11909 44.5616C1.11915 43.2758 1.67099 42.0366 2.60459 41.0871L2.02734 40.5195L1.45009 39.952C0.251743 41.1708 -0.499884 42.8063 -0.499954 44.5615L0.30957 44.5615ZM2.02734 40.5195L2.60459 41.0871C6.80195 36.818 12.9921 28.8564 12.9921 19.5078L12.1826 19.5078L11.3731 19.5078C11.373 28.1888 5.58036 35.7511 1.45009 39.952L2.02734 40.5195ZM12.1826 19.5078V20.3173H12.1836V19.5078V18.6983H12.1826V19.5078ZM12.1836 19.5078H12.9931V18.4287H12.1836H11.3741V19.5078H12.1836ZM12.1836 18.4287H12.9931C12.9931 17.6836 13.5976 17.0791 14.3428 17.0791V16.2695V15.46C12.7035 15.46 11.3741 16.7894 11.3741 18.4287H12.1836ZM14.3428 16.2695V17.0791H27.2949V16.2695V15.46H14.3428V16.2695Z" fill="#A8A8A8" style="fill:#A8A8A8;fill:color(display-p3 0.6588 0.6588 0.6588);fill-opacity:1;" mask="url(#path-1-inside-1_78_283)"/>
<path d="M2.46875 56.0713H39.167C40.1356 56.0714 40.9209 56.8575 40.9209 57.8262V67.5957H0.713867L0.714844 57.8262C0.714853 56.8575 1.50007 56.0713 2.46875 56.0713Z" fill="url(#paint1_linear_78_283)" stroke="#C1B612" style="stroke:#C1B612;stroke:color(display-p3 0.7569 0.7137 0.0706);stroke-opacity:1;" stroke-width="0.809524"/>
<path d="M24.2891 1.08398C25.4577 0.450439 26.8789 1.29661 26.8789 2.62598V16.4043H14.7461V7.94336C14.7462 6.90412 15.3159 5.94847 16.2295 5.45312L24.2891 1.08398Z" fill="url(#paint2_linear_78_283)" stroke="#B0A509" style="stroke:#B0A509;stroke:color(display-p3 0.6902 0.6471 0.0353);stroke-opacity:1;" stroke-width="0.809524"/>
<g filter="url(#filter2_f_78_283)">
<rect x="1.3894" y="42.1748" width="38.8571" height="12.9524" rx="2.15873" fill="url(#paint3_linear_78_283)"/>
</g>
</g>
</g>
<defs>
<filter id="filter0_dddd_78_283" x="-6.16662" y="-2.77423" width="83.1118" height="129.06" filterUnits="userSpaceOnUse" color-interpolation-filters="sRGB">
<feFlood flood-opacity="0" result="BackgroundImageFix"/>
<feColorMatrix in="SourceAlpha" type="matrix" values="0 0 0 0 0 0 0 0 0 0 0 0 0 0 0 0 0 0 127 0" result="hardAlpha"/>
<feOffset dx="1.61905" dy="3.2381"/>
<feGaussianBlur stdDeviation="3.2381"/>
<feColorMatrix type="matrix" values="0 0 0 0 0 0 0 0 0 0 0 0 0 0 0 0 0 0 0.1 0"/>
<feBlend mode="normal" in2="BackgroundImageFix" result="effect1_dropShadow_78_283"/>
<feColorMatrix in="SourceAlpha" type="matrix" values="0 0 0 0 0 0 0 0 0 0 0 0 0 0 0 0 0 0 127 0" result="hardAlpha"/>
<feOffset dx="4.85714" dy="9.71429"/>
<feGaussianBlur stdDeviation="5.66667"/>
<feColorMatrix type="matrix" values="0 0 0 0 0 0 0 0 0 0 0 0 0 0 0 0 0 0 0.09 0"/>
<feBlend mode="normal" in2="effect1_dropShadow_78_283" result="effect2_dropShadow_78_283"/>
<feColorMatrix in="SourceAlpha" type="matrix" values="0 0 0 0 0 0 0 0 0 0 0 0 0 0 0 0 0 0 127 0" result="hardAlpha"/>
<feOffset dx="9.71429" dy="22.6667"/>
<feGaussianBlur stdDeviation="7.28571"/>
<feColorMatrix type="matrix" values="0 0 0 0 0 0 0 0 0 0 0 0 0 0 0 0 0 0 0.05 0"/>
<feBlend mode="normal" in2="effect2_dropShadow_78_283" result="effect3_dropShadow_78_283"/>
<feColorMatrix in="SourceAlpha" type="matrix" values="0 0 0 0 0 0 0 0 0 0 0 0 0 0 0 0 0 0 127 0" result="hardAlpha"/>
<feOffset dx="17.8095" dy="40.4762"/>
<feGaussianBlur stdDeviation="8.90476"/>
<feColorMatrix type="matrix" values="0 0 0 0 0 0 0 0 0 0 0 0 0 0 0 0 0 0 0.01 0"/>
<feBlend mode="normal" in2="effect3_dropShadow_78_283" result="effect4_dropShadow_78_283"/>
<feBlend mode="normal" in="SourceGraphic" in2="effect4_dropShadow_78_283" result="shape"/>
</filter>
<filter id="filter1_ii_78_283" x="0.30957" y="16.2695" width="41.0166" height="39.9365" filterUnits="userSpaceOnUse" color-interpolation-filters="sRGB">
<feFlood flood-opacity="0" result="BackgroundImageFix"/>
<feBlend mode="normal" in="SourceGraphic" in2="BackgroundImageFix" result="shape"/>
<feColorMatrix in="SourceAlpha" type="matrix" values="0 0 0 0 0 0 0 0 0 0 0 0 0 0 0 0 0 0 127 0" result="hardAlpha"/>
<feOffset/>
<feGaussianBlur stdDeviation="2.69841"/>
<feComposite in2="hardAlpha" operator="arithmetic" k2="-1" k3="1"/>
<feColorMatrix type="matrix" values="0 0 0 0 1 0 0 0 0 1 0 0 0 0 1 0 0 0 1 0"/>
<feBlend mode="normal" in2="shape" result="effect1_innerShadow_78_283"/>
<feColorMatrix in="SourceAlpha" type="matrix" values="0 0 0 0 0 0 0 0 0 0 0 0 0 0 0 0 0 0 127 0" result="hardAlpha"/>
<feOffset/>
<feGaussianBlur stdDeviation="2.69841"/>
<feComposite in2="hardAlpha" operator="arithmetic" k2="-1" k3="1"/>
<feColorMatrix type="matrix" values="0 0 0 0 1 0 0 0 0 1 0 0 0 0 1 0 0 0 1 0"/>
<feBlend mode="normal" in2="effect1_innerShadow_78_283" result="effect2_innerShadow_78_283"/>
</filter>
<filter id="filter2_f_78_283" x="0.310039" y="41.0954" width="41.0159" height="15.1109" filterUnits="userSpaceOnUse" color-interpolation-filters="sRGB">
<feFlood flood-opacity="0" result="BackgroundImageFix"/>
<feBlend mode="normal" in="SourceGraphic" in2="BackgroundImageFix" result="shape"/>
<feGaussianBlur stdDeviation="0.539683" result="effect1_foregroundBlur_78_283"/>
</filter>
<linearGradient id="paint0_linear_78_283" x1="0.30957" y1="36.2378" x2="41.3262" y2="36.2378" gradientUnits="userSpaceOnUse">
<stop stop-color="#F2F2F2" style="stop-color:#F2F2F2;stop-color:color(display-p3 0.9490 0.9490 0.9490);stop-opacity:1;"/>
<stop offset="0.370192" stop-color="#FEFEFE" style="stop-color:#FEFEFE;stop-color:color(display-p3 0.9961 0.9961 0.9961);stop-opacity:1;"/>
<stop offset="0.620192" stop-color="#CACACA" style="stop-color:#CACACA;stop-color:color(display-p3 0.7936 0.7936 0.7936);stop-opacity:1;"/>
<stop offset="1" stop-color="#D5D5D5" style="stop-color:#D5D5D5;stop-color:color(display-p3 0.8334 0.8334 0.8334);stop-opacity:1;"/>
</linearGradient>
<linearGradient id="paint1_linear_78_283" x1="0.30957" y1="62.6829" x2="41.3254" y2="62.6829" gradientUnits="userSpaceOnUse">
<stop stop-color="#D3C720" style="stop-color:#D3C720;stop-color:color(display-p3 0.8287 0.7795 0.1240);stop-opacity:1;"/>
<stop offset="0.0961538" stop-color="#EBDE3C" style="stop-color:#EBDE3C;stop-color:color(display-p3 0.9201 0.8721 0.2370);stop-opacity:1;"/>
<stop offset="0.641597" stop-color="#CABE1C" style="stop-color:#CABE1C;stop-color:color(display-p3 0.7916 0.7439 0.1092);stop-opacity:1;"/>
<stop offset="1" stop-color="#DECF0E" style="stop-color:#DECF0E;stop-color:color(display-p3 0.8706 0.8118 0.0549);stop-opacity:1;"/>
</linearGradient>
<linearGradient id="paint2_linear_78_283" x1="21.3525" y1="-2.61905" x2="21.3525" y2="16.2698" gradientUnits="userSpaceOnUse">
<stop offset="0.334561" stop-color="#FFFAC7" style="stop-color:#FFFAC7;stop-color:color(display-p3 1.0000 0.9804 0.7804);stop-opacity:1;"/>
<stop offset="0.608077" stop-color="#FFF037" style="stop-color:#FFF037;stop-color:color(display-p3 1.0000 0.9412 0.2157);stop-opacity:1;"/>
</linearGradient>
<linearGradient id="paint3_linear_78_283" x1="1.3894" y1="48.651" x2="40.2466" y2="48.651" gradientUnits="userSpaceOnUse">
<stop stop-color="#F2F2F2" style="stop-color:#F2F2F2;stop-color:color(display-p3 0.9490 0.9490 0.9490);stop-opacity:1;"/>
<stop offset="0.370192" stop-color="#F2F2F2" style="stop-color:#F2F2F2;stop-color:color(display-p3 0.9510 0.9510 0.9510);stop-opacity:1;"/>
<stop offset="0.620192" stop-color="#BCBCBC" style="stop-color:#BCBCBC;stop-color:color(display-p3 0.7385 0.7385 0.7385);stop-opacity:1;"/>
<stop offset="0.923077" stop-color="#D1D1D1" style="stop-color:#D1D1D1;stop-color:color(display-p3 0.8190 0.8190 0.8190);stop-opacity:1;"/>
<stop offset="1" stop-color="#EAEAEA" style="stop-color:#EAEAEA;stop-color:color(display-p3 0.9178 0.9178 0.9178);stop-opacity:1;"/>
</linearGradient>
<clipPath id="clip0_78_283">
<rect width="66" height="68" fill="white" style="fill:white;fill-opacity:1;"/>
</clipPath>
</defs>
</svg>
