<svg width="133" height="133" viewBox="0 0 133 133" fill="none" xmlns="http://www.w3.org/2000/svg">
<circle cx="66.33" cy="66.33" r="65.33" fill="#F0EC00" stroke="#3DA726" stroke-width="2"/>
<circle cx="66.3298" cy="66.3298" r="51.115" fill="white" stroke="#3DA726" stroke-width="2"/>
<mask id="path-3-outside-1_5866_766" maskUnits="userSpaceOnUse" x="42.8301" y="37.3281" width="46" height="76" fill="black">
<rect fill="white" x="42.8301" y="37.3281" width="46" height="76"/>
<path d="M82.4467 110.375H72.1721C68.5332 110.375 65.9111 109.412 64.3057 107.486C62.7003 105.613 61.8976 103.124 61.8976 100.021V96.9703C59.0614 96.4887 56.5998 95.4987 54.5127 94.0003C52.4257 92.5019 50.6865 90.5487 49.2952 88.1406C47.9574 85.679 46.9674 82.7893 46.3252 79.4714C45.683 76.1536 45.362 72.4344 45.362 68.3139C45.362 63.7653 45.7633 59.6982 46.566 56.1129C47.3687 52.4739 48.5995 49.4237 50.2584 46.9621C51.9709 44.5005 54.1114 42.6275 56.68 41.3432C59.3022 40.0053 62.3792 39.3364 65.9111 39.3364C69.443 39.3364 72.4932 40.0053 75.0619 41.3432C77.684 42.6275 79.8245 44.5005 81.4835 46.9621C83.1959 49.4237 84.4534 52.4739 85.2561 56.1129C86.0588 59.6982 86.4602 63.7653 86.4602 68.3139C86.4602 76.5549 85.1224 83.1638 82.4467 88.1406C79.771 93.1173 75.597 96.0606 69.9246 96.9703V103.633H82.4467V110.375ZM65.9111 89.8263C69.9246 89.8263 72.7608 88.3279 74.4197 85.3311C76.0786 82.2809 76.9081 78.1603 76.9081 72.9696V63.578C76.9081 58.4407 76.0786 54.3737 74.4197 51.3769C72.7608 48.3267 69.9246 46.8015 65.9111 46.8015C61.8976 46.8015 59.0614 48.3267 57.4025 51.3769C55.7435 54.3737 54.9141 58.4407 54.9141 63.578V73.0498C54.9141 78.1871 55.7435 82.2809 57.4025 85.3311C59.0614 88.3279 61.8976 89.8263 65.9111 89.8263Z"/>
</mask>
<path d="M82.4467 110.375H72.1721C68.5332 110.375 65.9111 109.412 64.3057 107.486C62.7003 105.613 61.8976 103.124 61.8976 100.021V96.9703C59.0614 96.4887 56.5998 95.4987 54.5127 94.0003C52.4257 92.5019 50.6865 90.5487 49.2952 88.1406C47.9574 85.679 46.9674 82.7893 46.3252 79.4714C45.683 76.1536 45.362 72.4344 45.362 68.3139C45.362 63.7653 45.7633 59.6982 46.566 56.1129C47.3687 52.4739 48.5995 49.4237 50.2584 46.9621C51.9709 44.5005 54.1114 42.6275 56.68 41.3432C59.3022 40.0053 62.3792 39.3364 65.9111 39.3364C69.443 39.3364 72.4932 40.0053 75.0619 41.3432C77.684 42.6275 79.8245 44.5005 81.4835 46.9621C83.1959 49.4237 84.4534 52.4739 85.2561 56.1129C86.0588 59.6982 86.4602 63.7653 86.4602 68.3139C86.4602 76.5549 85.1224 83.1638 82.4467 88.1406C79.771 93.1173 75.597 96.0606 69.9246 96.9703V103.633H82.4467V110.375ZM65.9111 89.8263C69.9246 89.8263 72.7608 88.3279 74.4197 85.3311C76.0786 82.2809 76.9081 78.1603 76.9081 72.9696V63.578C76.9081 58.4407 76.0786 54.3737 74.4197 51.3769C72.7608 48.3267 69.9246 46.8015 65.9111 46.8015C61.8976 46.8015 59.0614 48.3267 57.4025 51.3769C55.7435 54.3737 54.9141 58.4407 54.9141 63.578V73.0498C54.9141 78.1871 55.7435 82.2809 57.4025 85.3311C59.0614 88.3279 61.8976 89.8263 65.9111 89.8263Z" fill="#F0EC00"/>
<path d="M82.4467 110.375V112.375H84.4467V110.375H82.4467ZM64.3057 107.486L65.8421 106.205L65.8332 106.195L65.8242 106.184L64.3057 107.486ZM61.8976 96.9703H63.8976V95.2813L62.2324 94.9985L61.8976 96.9703ZM54.5127 94.0003L53.3463 95.6249V95.6249L54.5127 94.0003ZM49.2952 88.1406L47.5379 89.0956L47.5504 89.1185L47.5635 89.1411L49.2952 88.1406ZM46.3252 79.4714L44.3616 79.8515V79.8515L46.3252 79.4714ZM46.566 56.1129L48.5177 56.5498L48.5191 56.5437L46.566 56.1129ZM50.2584 46.9621L48.6166 45.8199L48.6082 45.8321L48.5999 45.8444L50.2584 46.9621ZM56.68 41.3432L57.5745 43.132L57.5817 43.1284L57.589 43.1247L56.68 41.3432ZM75.0619 41.3432L74.138 43.117L74.1599 43.1284L74.1821 43.1393L75.0619 41.3432ZM81.4835 46.9621L79.8249 48.0798L79.8332 48.0921L79.8416 48.1042L81.4835 46.9621ZM85.2561 56.1129L83.3031 56.5437L83.3045 56.5498L85.2561 56.1129ZM82.4467 88.1406L80.6852 87.1935L82.4467 88.1406ZM69.9246 96.9703L69.6079 94.9955L67.9246 95.2655V96.9703H69.9246ZM69.9246 103.633H67.9246V105.633H69.9246V103.633ZM82.4467 103.633H84.4467V101.633H82.4467V103.633ZM74.4197 85.3311L76.1695 86.2998L76.1731 86.2932L76.1767 86.2867L74.4197 85.3311ZM74.4197 51.3769L72.6627 52.3325L72.6663 52.339L72.6699 52.3456L74.4197 51.3769ZM57.4025 51.3769L59.1522 52.3456L59.1559 52.339L59.1594 52.3325L57.4025 51.3769ZM57.4025 85.3311L55.6455 86.2867L55.6491 86.2932L55.6527 86.2998L57.4025 85.3311ZM82.4467 110.375V108.375H72.1721V110.375V112.375H82.4467V110.375ZM72.1721 110.375V108.375C68.8507 108.375 66.9205 107.499 65.8421 106.205L64.3057 107.486L62.7692 108.766C64.9016 111.325 68.2158 112.375 72.1721 112.375V110.375ZM64.3057 107.486L65.8242 106.184C64.6032 104.76 63.8976 102.774 63.8976 100.021H61.8976H59.8976C59.8976 103.475 60.7973 106.466 62.7872 108.787L64.3057 107.486ZM61.8976 100.021H63.8976V96.9703H61.8976H59.8976V100.021H61.8976ZM61.8976 96.9703L62.2324 94.9985C59.66 94.5617 57.4908 93.6763 55.6792 92.3756L54.5127 94.0003L53.3463 95.6249C55.7087 97.321 58.4628 98.4156 61.5627 98.9421L61.8976 96.9703ZM54.5127 94.0003L55.6792 92.3756C53.8413 91.0561 52.2881 89.3229 51.0269 87.14L49.2952 88.1406L47.5635 89.1411C49.0849 91.7745 51.0102 93.9477 53.3463 95.6249L54.5127 94.0003ZM49.2952 88.1406L51.0524 87.1856C49.8302 84.9366 48.8997 82.2482 48.2888 79.0914L46.3252 79.4714L44.3616 79.8515C45.035 83.3303 46.0846 86.4214 47.5379 89.0956L49.2952 88.1406ZM46.3252 79.4714L48.2888 79.0914C47.6754 75.9225 47.362 72.3335 47.362 68.3139H45.362H43.362C43.362 72.5353 43.6907 76.3847 44.3616 79.8515L46.3252 79.4714ZM45.362 68.3139H47.362C47.362 63.879 47.7536 59.9626 48.5177 56.5498L46.566 56.1129L44.6143 55.6759C43.773 59.4339 43.362 63.6515 43.362 68.3139H45.362ZM46.566 56.1129L48.5191 56.5437C49.2809 53.0899 50.4293 50.2873 51.917 48.0798L50.2584 46.9621L48.5999 45.8444C46.7697 48.5601 45.4565 51.858 44.613 55.682L46.566 56.1129ZM50.2584 46.9621L51.9002 48.1042C53.4303 45.9047 55.3185 44.26 57.5745 43.132L56.68 41.3432L55.7856 39.5543C52.9042 40.995 50.5114 43.0962 48.6166 45.8199L50.2584 46.9621ZM56.68 41.3432L57.589 43.1247C59.8788 41.9564 62.6326 41.3364 65.9111 41.3364V39.3364V37.3364C62.1258 37.3364 58.7256 38.0542 55.7711 39.5616L56.68 41.3432ZM65.9111 39.3364V41.3364C69.191 41.3364 71.9107 41.9569 74.138 43.117L75.0619 41.3432L75.9857 39.5693C73.0758 38.0537 69.6949 37.3364 65.9111 37.3364V39.3364ZM75.0619 41.3432L74.1821 43.1393C76.4843 44.2669 78.3583 45.9035 79.8249 48.0798L81.4835 46.9621L83.142 45.8444C81.2908 43.0974 78.8837 40.9881 75.9416 39.547L75.0619 41.3432ZM81.4835 46.9621L79.8416 48.1042C81.3734 50.3061 82.5435 53.1 83.3031 56.5437L85.2561 56.1129L87.2092 55.682C86.3634 51.8479 85.0183 48.5412 83.1253 45.8199L81.4835 46.9621ZM85.2561 56.1129L83.3045 56.5498C84.0685 59.9626 84.4602 63.879 84.4602 68.3139H86.4602H88.4602C88.4602 63.6515 88.0492 59.4339 87.2078 55.6759L85.2561 56.1129ZM86.4602 68.3139H84.4602C84.4602 76.3654 83.1489 82.6109 80.6852 87.1935L82.4467 88.1406L84.2082 89.0877C87.0958 83.7168 88.4602 76.7445 88.4602 68.3139H86.4602ZM82.4467 88.1406L80.6852 87.1935C78.3104 91.6106 74.6769 94.1826 69.6079 94.9955L69.9246 96.9703L70.2413 98.9451C76.5171 97.9386 81.2317 94.6241 84.2082 89.0877L82.4467 88.1406ZM69.9246 96.9703H67.9246V103.633H69.9246H71.9246V96.9703H69.9246ZM69.9246 103.633V105.633H82.4467V103.633V101.633H69.9246V103.633ZM82.4467 103.633H80.4467V110.375H82.4467H84.4467V103.633H82.4467ZM65.9111 89.8263V91.8263C70.5022 91.8263 74.0912 90.054 76.1695 86.2998L74.4197 85.3311L72.6699 84.3625C71.4303 86.6017 69.347 87.8263 65.9111 87.8263V89.8263ZM74.4197 85.3311L76.1767 86.2867C78.0547 82.8334 78.9081 78.3418 78.9081 72.9696H76.9081H74.9081C74.9081 77.979 74.1025 81.7283 72.6627 84.3756L74.4197 85.3311ZM76.9081 72.9696H78.9081V63.578H76.9081H74.9081V72.9696H76.9081ZM76.9081 63.578H78.9081C78.9081 58.2581 78.0544 53.8134 76.1695 50.4083L74.4197 51.3769L72.6699 52.3456C74.1028 54.934 74.9081 58.6233 74.9081 63.578H76.9081ZM74.4197 51.3769L76.1767 50.4214C74.1063 46.6146 70.5193 44.8015 65.9111 44.8015V46.8015V48.8015C69.3299 48.8015 71.4153 50.0387 72.6627 52.3325L74.4197 51.3769ZM65.9111 46.8015V44.8015C61.3029 44.8015 57.7159 46.6146 55.6455 50.4214L57.4025 51.3769L59.1594 52.3325C60.4069 50.0387 62.4923 48.8015 65.9111 48.8015V46.8015ZM57.4025 51.3769L55.6527 50.4083C53.7677 53.8134 52.9141 58.2581 52.9141 63.578H54.9141H56.9141C56.9141 58.6233 57.7194 54.934 59.1522 52.3456L57.4025 51.3769ZM54.9141 63.578H52.9141V73.0498H54.9141H56.9141V63.578H54.9141ZM54.9141 73.0498H52.9141C52.9141 78.3727 53.7687 82.8359 55.6455 86.2867L57.4025 85.3311L59.1594 84.3756C57.7183 81.7259 56.9141 78.0015 56.9141 73.0498H54.9141ZM57.4025 85.3311L55.6527 86.2998C57.7309 90.054 61.32 91.8263 65.9111 91.8263V89.8263V87.8263C62.4752 87.8263 60.3918 86.6017 59.1522 84.3625L57.4025 85.3311Z" fill="#3DA726" mask="url(#path-3-outside-1_5866_766)"/>
</svg>
