<svg width="133" height="133" viewBox="0 0 133 133" fill="none" xmlns="http://www.w3.org/2000/svg">
<circle cx="66.33" cy="66.33" r="65.33" fill="#F0EC00" stroke="#3DA726" stroke-width="2"/>
<circle cx="66.3298" cy="66.3298" r="51.115" fill="white" stroke="#3DA726" stroke-width="2"/>
<mask id="path-3-outside-1_5866_770" maskUnits="userSpaceOnUse" x="45.8301" y="37.3281" width="45" height="61" fill="black">
<rect fill="white" x="45.8301" y="37.3281" width="45" height="61"/>
<path d="M57.4827 96.3281H48.5728V40.2997H69.5232C74.8746 40.2997 78.9416 41.798 81.7243 44.7948C84.5605 47.7915 85.9786 51.9121 85.9786 57.1564C85.9786 61.4374 84.9351 64.9693 82.848 67.752C80.761 70.5347 77.7643 72.2471 73.8578 72.8893L86.7813 96.3281H76.8278L64.9478 73.692H57.4827V96.3281ZM68.2389 66.4677C73.8043 66.4677 76.587 63.9258 76.587 58.842V55.3904C76.587 50.3067 73.8043 47.7648 68.2389 47.7648H57.4827V66.4677H68.2389Z"/>
</mask>
<path d="M57.4827 96.3281H48.5728V40.2997H69.5232C74.8746 40.2997 78.9416 41.798 81.7243 44.7948C84.5605 47.7915 85.9786 51.9121 85.9786 57.1564C85.9786 61.4374 84.9351 64.9693 82.848 67.752C80.761 70.5347 77.7643 72.2471 73.8578 72.8893L86.7813 96.3281H76.8278L64.9478 73.692H57.4827V96.3281ZM68.2389 66.4677C73.8043 66.4677 76.587 63.9258 76.587 58.842V55.3904C76.587 50.3067 73.8043 47.7648 68.2389 47.7648H57.4827V66.4677H68.2389Z" fill="#F0EC00"/>
<path d="M57.4827 96.3281V98.3281H59.4827V96.3281H57.4827ZM48.5728 96.3281H46.5728V98.3281H48.5728V96.3281ZM48.5728 40.2997V38.2997H46.5728V40.2997H48.5728ZM81.7243 44.7948L80.2587 46.1557L80.2651 46.1627L80.2717 46.1696L81.7243 44.7948ZM82.848 67.752L84.448 68.952H84.4481L82.848 67.752ZM73.8578 72.8893L73.5334 70.9158L70.7391 71.3751L72.1064 73.855L73.8578 72.8893ZM86.7813 96.3281V98.3281H90.1679L88.5327 95.3624L86.7813 96.3281ZM76.8278 96.3281L75.0569 97.2575L75.6187 98.3281H76.8278V96.3281ZM64.9478 73.692L66.7188 72.7626L66.1569 71.692H64.9478V73.692ZM57.4827 73.692V71.692H55.4827V73.692H57.4827ZM57.4827 47.7648V45.7648H55.4827V47.7648H57.4827ZM57.4827 66.4677H55.4827V68.4677H57.4827V66.4677ZM57.4827 96.3281V94.3281H48.5728V96.3281V98.3281H57.4827V96.3281ZM48.5728 96.3281H50.5728V40.2997H48.5728H46.5728V96.3281H48.5728ZM48.5728 40.2997V42.2997H69.5232V40.2997V38.2997H48.5728V40.2997ZM69.5232 40.2997V42.2997C74.499 42.2997 77.9619 43.6822 80.2587 46.1557L81.7243 44.7948L83.1899 43.4339C79.9212 39.9138 75.2501 38.2997 69.5232 38.2997V40.2997ZM81.7243 44.7948L80.2717 46.1696C82.6683 48.7018 83.9786 52.2791 83.9786 57.1564H85.9786H87.9786C87.9786 51.545 86.4526 46.8812 83.1769 43.42L81.7243 44.7948ZM85.9786 57.1564H83.9786C83.9786 61.1066 83.0203 64.189 81.2481 66.552L82.848 67.752L84.4481 68.952C86.8498 65.7496 87.9786 61.7683 87.9786 57.1564H85.9786ZM82.848 67.752L81.2481 66.552C79.5139 68.8642 77.0068 70.3448 73.5334 70.9158L73.8578 72.8893L74.1822 74.8628C78.5217 74.1495 82.0082 72.2052 84.448 68.952L82.848 67.752ZM73.8578 72.8893L72.1064 73.855L85.0299 97.2938L86.7813 96.3281L88.5327 95.3624L75.6092 71.9236L73.8578 72.8893ZM86.7813 96.3281V94.3281H76.8278V96.3281V98.3281H86.7813V96.3281ZM76.8278 96.3281L78.5987 95.3987L66.7188 72.7626L64.9478 73.692L63.1769 74.6214L75.0569 97.2575L76.8278 96.3281ZM64.9478 73.692V71.692H57.4827V73.692V75.692H64.9478V73.692ZM57.4827 73.692H55.4827V96.3281H57.4827H59.4827V73.692H57.4827ZM68.2389 66.4677V68.4677C71.2873 68.4677 73.9468 67.7754 75.8488 66.0379C77.7852 64.2691 78.587 61.7412 78.587 58.842H76.587H74.587C74.587 61.0267 73.9974 62.3115 73.1511 63.0846C72.2705 63.889 70.7559 64.4677 68.2389 64.4677V66.4677ZM76.587 58.842H78.587V55.3904H76.587H74.587V58.842H76.587ZM76.587 55.3904H78.587C78.587 52.4913 77.7852 49.9633 75.8488 48.1945C73.9468 46.4571 71.2873 45.7648 68.2389 45.7648V47.7648V49.7648C70.7559 49.7648 72.2705 50.3434 73.1511 51.1479C73.9974 51.9209 74.587 53.2058 74.587 55.3904H76.587ZM68.2389 47.7648V45.7648H57.4827V47.7648V49.7648H68.2389V47.7648ZM57.4827 47.7648H55.4827V66.4677H57.4827H59.4827V47.7648H57.4827ZM57.4827 66.4677V68.4677H68.2389V66.4677V64.4677H57.4827V66.4677Z" fill="#3DA726" mask="url(#path-3-outside-1_5866_770)"/>
</svg>
