<svg width="133" height="133" viewBox="0 0 133 133" fill="none" xmlns="http://www.w3.org/2000/svg">
<circle cx="66.33" cy="66.33" r="65.33" fill="#F0EC00" stroke="#3DA726" stroke-width="2"/>
<circle cx="66.3298" cy="66.3298" r="51.115" fill="white" stroke="#3DA726" stroke-width="2"/>
<mask id="path-3-outside-1_5866_794" maskUnits="userSpaceOnUse" x="38.8301" y="37.3281" width="54" height="61" fill="black">
<rect fill="white" x="38.8301" y="37.3281" width="54" height="61"/>
<path d="M88.5472 96.3281H78.3529L72.0116 85.2509L66.0716 74.6552H65.59L59.4895 85.2509L52.9073 96.3281H43.3552L60.533 67.5915L44.3987 40.2997H54.593L60.2922 50.3334L66.0716 60.6882H66.473L72.2524 50.3334L78.1924 40.2997H87.7445L71.53 67.5915L88.5472 96.3281Z"/>
</mask>
<path d="M88.5472 96.3281H78.3529L72.0116 85.2509L66.0716 74.6552H65.59L59.4895 85.2509L52.9073 96.3281H43.3552L60.533 67.5915L44.3987 40.2997H54.593L60.2922 50.3334L66.0716 60.6882H66.473L72.2524 50.3334L78.1924 40.2997H87.7445L71.53 67.5915L88.5472 96.3281Z" fill="#F0EC00"/>
<path d="M88.5472 96.3281V98.3281H92.0559L90.2681 95.309L88.5472 96.3281ZM78.3529 96.3281L76.6172 97.3218L77.1933 98.3281H78.3529V96.3281ZM72.0116 85.2509L70.267 86.2289L70.2714 86.2367L70.2759 86.2445L72.0116 85.2509ZM66.0716 74.6552L67.8162 73.6772L67.2432 72.6552H66.0716V74.6552ZM65.59 74.6552V72.6552H64.4337L63.8568 73.6573L65.59 74.6552ZM59.4895 85.2509L61.2088 86.2725L61.2159 86.2607L61.2227 86.2488L59.4895 85.2509ZM52.9073 96.3281V98.3281H54.0454L54.6267 97.3498L52.9073 96.3281ZM43.3552 96.3281L41.6385 95.302L39.8296 98.3281H43.3552V96.3281ZM60.533 67.5915L62.2497 68.6176L62.8597 67.5971L62.2546 66.5737L60.533 67.5915ZM44.3987 40.2997V38.2997H40.893L42.6771 41.3175L44.3987 40.2997ZM54.593 40.2997L56.3321 39.3119L55.7571 38.2997H54.593V40.2997ZM60.2922 50.3334L62.0386 49.3587L62.0349 49.3521L62.0312 49.3456L60.2922 50.3334ZM66.0716 60.6882L64.3252 61.663L64.8975 62.6882H66.0716V60.6882ZM66.473 60.6882V62.6882H67.6471L68.2194 61.663L66.473 60.6882ZM72.2524 50.3334L70.5314 49.3146L70.5184 49.3365L70.506 49.3587L72.2524 50.3334ZM78.1924 40.2997V38.2997H77.0522L76.4714 39.2808L78.1924 40.2997ZM87.7445 40.2997L89.464 41.3212L91.2591 38.2997H87.7445V40.2997ZM71.53 67.5915L69.8105 66.5699L69.2046 67.5898L69.8091 68.6105L71.53 67.5915ZM88.5472 96.3281V94.3281H78.3529V96.3281V98.3281H88.5472V96.3281ZM78.3529 96.3281L80.0886 95.3345L73.7473 84.2572L72.0116 85.2509L70.2759 86.2445L76.6172 97.3218L78.3529 96.3281ZM72.0116 85.2509L73.7562 84.2729L67.8162 73.6772L66.0716 74.6552L64.3271 75.6332L70.267 86.2289L72.0116 85.2509ZM66.0716 74.6552V72.6552H65.59V74.6552V76.6552H66.0716V74.6552ZM65.59 74.6552L63.8568 73.6573L57.7562 84.2529L59.4895 85.2509L61.2227 86.2488L67.3232 75.6532L65.59 74.6552ZM59.4895 85.2509L57.7701 84.2292L51.188 95.3065L52.9073 96.3281L54.6267 97.3498L61.2088 86.2725L59.4895 85.2509ZM52.9073 96.3281V94.3281H43.3552V96.3281V98.3281H52.9073V96.3281ZM43.3552 96.3281L45.0719 97.3543L62.2497 68.6176L60.533 67.5915L58.8163 66.5653L41.6385 95.302L43.3552 96.3281ZM60.533 67.5915L62.2546 66.5737L46.1204 39.2819L44.3987 40.2997L42.6771 41.3175L58.8113 68.6093L60.533 67.5915ZM44.3987 40.2997V42.2997H54.593V40.2997V38.2997H44.3987V40.2997ZM54.593 40.2997L52.854 41.2874L58.5531 51.3212L60.2922 50.3334L62.0312 49.3456L56.3321 39.3119L54.593 40.2997ZM60.2922 50.3334L58.5458 51.3081L64.3252 61.663L66.0716 60.6882L67.818 59.7135L62.0386 49.3587L60.2922 50.3334ZM66.0716 60.6882V62.6882H66.473V60.6882V58.6882H66.0716V60.6882ZM66.473 60.6882L68.2194 61.663L73.9988 51.3081L72.2524 50.3334L70.506 49.3587L64.7266 59.7135L66.473 60.6882ZM72.2524 50.3334L73.9734 51.3523L79.9134 41.3185L78.1924 40.2997L76.4714 39.2808L70.5314 49.3146L72.2524 50.3334ZM78.1924 40.2997V42.2997H87.7445V40.2997V38.2997H78.1924V40.2997ZM87.7445 40.2997L86.0251 39.2781L69.8105 66.5699L71.53 67.5915L73.2494 68.613L89.464 41.3212L87.7445 40.2997ZM71.53 67.5915L69.8091 68.6105L86.8263 97.3472L88.5472 96.3281L90.2681 95.309L73.2509 66.5724L71.53 67.5915Z" fill="#3DA726" mask="url(#path-3-outside-1_5866_794)"/>
</svg>
